<svg width="121" height="120" fill="none" xmlns="http://www.w3.org/2000/svg"><path d="M55.228 85.405a2 2 0 000 4v-4zM24.15 64.28a2 2 0 004 0h-4zm15.863 10.673a2 2 0 000-4v4zm-23.313-4a2 2 0 100 4v-4zm26.226 11.95a2 2 0 000-4v4zm-19.683-4a2 2 0 100 4v-4zM45.778 90.85a2 2 0 000-4v4zm-13.812-4a2 2 0 100 4v-4zm23.262-16.79l-1.024 1.717a2 2 0 002.049 0l-1.025-1.717zM31.966 48.935H78.49v-4H31.966v4zm50.34 3.782v28.907h4V52.717h-4zM78.49 85.405H55.228v4H78.49v-4zM28.15 64.28V52.717h-4v11.562h4zm54.156 17.345c0 2.077-1.697 3.781-3.816 3.781v4c4.306 0 7.816-3.473 7.816-7.781h-4zm-3.816-32.69c2.119 0 3.816 1.704 3.816 3.782h4c0-4.31-3.51-7.782-7.816-7.782v4zm-46.524-4c-4.305 0-7.816 3.473-7.816 7.782h4c0-2.078 1.698-3.782 3.816-3.782v-4zm8.047 26.017H16.7v4h23.313v-4zm2.913 7.95H23.243v4h19.683v-4zm2.852 7.949h-6.906v4h6.906v-4zm-6.906 0h-6.906v4h6.906v-4zM25.126 54.434l29.078 17.344 2.049-3.435L27.175 51l-2.05 3.435zm31.127 17.344L85.33 54.434 83.281 51 54.204 68.343l2.049 3.435z" fill="#667085"/><rect x="81.602" y="23.949" width="4.056" height="12.169" rx="2.028" fill="#667085"/><rect x="89.714" y="28.006" width="4.056" height="12.169" rx="2.028" transform="rotate(90 89.714 28.006)" fill="#667085"/><rect x="104.588" y="40.175" width="4.056" height="12.169" rx="2.028" fill="#667085"/><rect x="112.7" y="44.231" width="4.056" height="12.169" rx="2.028" transform="rotate(90 112.7 44.231)" fill="#667085"/></svg>