<svg width="60" height="60" fill="none" xmlns="http://www.w3.org/2000/svg"><path fill-rule="evenodd" clip-rule="evenodd" d="M28.48 28.67v21.619l-.919-.104c-2.286-.259-5.22-1.25-7.407-2.5C14.066 44.2 10.28 38.119 9.8 31.05c-.23-3.37.8-7.904 2.45-10.8 1.544-2.709 4.195-5.614 6.556-7.185 1.026-.683 4.052-2.265 4.332-2.265.05 0 .092.624.092 1.387v1.388l-.996.515c-2.143 1.108-4.687 3.23-6.115 5.098-6.412 8.396-3.876 20.74 5.374 26.15.823.481 4.104 1.912 4.385 1.912.029 0 .053-4.32.053-9.6v-9.6h-7.2v3.45h4.048v4.8c0 2.64-.042 4.8-.094 4.8-.182 0-1.187-.658-2.045-1.34-1.723-1.366-3.106-3.452-3.985-6.008-.525-1.525-.542-1.646-.536-3.677.007-1.787.067-2.323.409-3.6.481-1.803 1.475-3.89 2.404-5.049.746-.93 2.213-2.04 3.21-2.426l.637-.248V24h3.104l.105-5.363c.057-2.949.096-6.735.087-8.414l-.018-3.052-.533.1c-.293.055-1.114.268-1.826.473C15.534 10.1 9.27 16.89 7.47 25.333c-.396 1.855-.547 5.585-.301 7.442.697 5.278 2.894 9.72 6.68 13.505 2.104 2.105 3.795 3.309 6.42 4.572 2.952 1.422 5.632 2.088 8.886 2.208 10.104.376 19.313-5.945 22.637-15.538A23.099 23.099 0 0048.448 16.1c-2.96-3.944-7.443-7.035-12.143-8.373-1.017-.29-1.945-.527-2.063-.527-.182 0-.212 1.754-.212 12.15V31.5h10.05l-.002.712c-.005 2.023-1.547 5.255-3.508 7.353-.879.941-2.697 2.435-2.963 2.435-.07 0-.127-1.586-.127-3.525V34.95h-3.451v12.277l1.088-.298c4.145-1.138 8.538-4.7 10.745-8.713 1.226-2.23 1.803-4.588 1.927-7.879l.086-2.287H37.48v-4.875c0-2.681.055-4.875.124-4.875.316 0 1.61 1.022 2.44 1.926.94 1.024 2.602 3.408 3.076 4.412.146.309.337.561.425.56.19-.002 3.111-.875 3.19-.953.092-.093-.417-1.472-.894-2.42-1.482-2.947-4.086-5.506-7.56-7.43l-1.401-.777v-2.802l.444.155c.838.292 2.93 1.405 4.049 2.155 1.47.985 3.74 3.156 4.831 4.624a21.082 21.082 0 013.5 7.3c.344 1.322.422 1.991.487 4.171.08 2.714-.04 3.965-.574 5.985-1.462 5.531-5.462 10.413-10.69 13.046-1.802.907-5.59 1.998-6.939 1.998h-.358V7.05h-3.15v21.62z" fill="#98A2B3"/></svg>