<svg width="60" height="60" fill="none" xmlns="http://www.w3.org/2000/svg"><path fill-rule="evenodd" clip-rule="evenodd" d="M26.877 7.108c-5.141.706-9.464 2.871-13.22 6.623-3.419 3.415-5.403 7.088-6.433 11.907-.274 1.282-.324 1.957-.324 4.398 0 2.442.05 3.117.324 4.399.68 3.178 1.852 5.966 3.64 8.658 1.223 1.84 4.203 4.817 6.045 6.038 1.928 1.278 5.26 2.897 5.965 2.897.137 0 .168-1.073.137-4.759l-.04-4.759h3.761v5.197c0 4.813.02 5.203.253 5.3.14.056 1.52.098 3.068.093 2.338-.009 3.073-.065 4.332-.333 9.48-2.016 16.484-9.022 18.364-18.372.473-2.353.468-6.379-.012-8.793l-.337-1.695H26.733v7.355h-3.754V20.158h13.932c9.33 0 13.932-.048 13.932-.146 0-.23-.836-1.679-1.789-3.099-1.147-1.71-4.202-4.766-5.935-5.936-4.824-3.257-10.626-4.639-16.242-3.869zm7.6 4.018c2.784.698 5.193 1.863 7.487 3.62.556.426 1.202.975 1.435 1.219l.424.443H19.298v18.603H34.24v3.747l-7.444.038-7.445.037.014 3.714c.007 2.042-.028 3.713-.078 3.713-.244 0-2.582-1.977-3.503-2.961-2.323-2.484-3.882-5.387-4.758-8.856-.353-1.398-.384-1.757-.383-4.407.001-2.526.043-3.054.337-4.254 1.572-6.416 5.91-11.457 11.907-13.836 2.547-1.01 4.348-1.304 7.6-1.238 2.11.043 2.767.112 3.99.418zm14.893 18.55c.114 5.524-1.748 10.14-5.672 14.062-1.756 1.755-3.167 2.764-5.343 3.82-2.15 1.045-5.323 1.874-7.166 1.874h-.703V42.51h7.508V31.262h-7.508v-1.779c0-.978.044-1.822.098-1.875.053-.054 4.292-.08 9.42-.06l9.323.037.043 2.09z" fill="#98A2B3"/></svg>