<svg width="60" height="60" fill="none" xmlns="http://www.w3.org/2000/svg"><path fill-rule="evenodd" clip-rule="evenodd" d="M43.401 7.246c-.653.188-7.241 2.067-14.64 4.177-7.4 2.11-13.478 3.86-13.508 3.89-.03.03-.066 5.788-.079 12.796l-.024 12.74 1.173 1.04c.645.571 1.933 1.715 2.86 2.542.928.826 1.706 1.503 1.727 1.503.022 0 .04-5.921.04-13.158V19.617l2.579-.733c14.754-4.198 21.195-6.048 21.236-6.1.027-.035.037-1.374.023-2.976-.02-2.162-.048-2.912-.113-2.908-.047.003-.62.159-1.274.346zm.742 8.11c-.245.075-5.04 1.445-10.657 3.045L23.275 21.31l-.05 6.059c-.026 3.332-.049 9.333-.049 13.334v7.276l2.853 2.532c1.57 1.393 2.872 2.514 2.895 2.49.023-.023.041-3.325.041-7.338v-7.297l.168-.043c.091-.024 2.705-.768 5.807-1.653l5.64-1.61.02-2.992c.018-2.828.012-2.99-.111-2.951a1859.39 1859.39 0 01-11.32 3.212l-.205.041.02-3.36.019-3.36 7.236-2.064c3.98-1.135 7.545-2.154 7.923-2.265l.686-.2v-2.957c0-3.364.08-3.046-.705-2.808z" fill="#98A2B3"/></svg>