<svg width="60" height="60" fill="none" xmlns="http://www.w3.org/2000/svg"><path fill-rule="evenodd" clip-rule="evenodd" d="M25.321 8.61c-2.79 2.117-8.553 6.496-10.06 7.644l-1.01.77v13.44l-.001 13.44 2.23 1.827c1.38 1.13 2.25 1.778 2.282 1.697.027-.072.038-3.35.023-7.283-.015-3.934-.014-7.152.002-7.152.034 0 10.084 3.799 12.042 4.552l1.295.498.027 7.627c.016 4.732.063 7.614.124 7.592.092-.032 2.368-1.874 3.78-3.058l.628-.527.024-9.588c.023-9.534.022-9.588-.186-9.7-.199-.107-4.23-1.661-4.308-1.661-.02 0-.037 1.053-.037 2.34 0 1.801-.03 2.341-.13 2.341-.111 0-2.604-.929-6.139-2.289a703.47 703.47 0 00-3.264-1.236 378.16 378.16 0 01-3.005-1.14l-.777-.302V18.08l2.176-1.658 2.176-1.658.052 7.372.052 7.372 2.124.806c1.168.443 2.182.806 2.254.806.1 0 .129-.539.129-2.351 0-2.198.012-2.348.181-2.281.1.039 1.417.54 2.928 1.112 1.51.573 3.095 1.177 3.523 1.342.427.166 2.106.806 3.73 1.425l2.953 1.124.052 8.043.052 8.043 2.253-1.843 2.254-1.844-.005-13.433-.005-13.433-3.23-2.445c-1.776-1.345-4.77-3.617-6.652-5.05a355.896 355.896 0 00-3.553-2.685c-.104-.065-.125 1.535-.104 7.997l.027 8.077 2.164.824c1.19.453 2.203.824 2.252.824.048 0 .087-2.165.087-4.811 0-2.647.036-4.827.08-4.845.044-.018 1.047.703 2.23 1.601l2.15 1.634v8.812l-.544-.211c-.76-.295-7.58-2.889-8.212-3.122-.285-.106-1.427-.54-2.539-.965l-2.02-.772-.052-7.57-.052-7.568-2.451 1.86zm-2.056 33.928v7.153l1.98 1.612 2.28 1.855.3.242-.026-8.198-.027-8.197-2.124-.805c-1.168-.442-2.182-.806-2.254-.81-.102-.003-.13 1.493-.129 7.148z" fill="#98A2B3"/></svg>