<svg display="none" xmlns="http://www.w3.org/2000/svg">
    <symbol id="search-icon" viewBox="0 0 24 24">
        <path d="M18.6541 17.595L21.5836 20.523C21.7202 20.6645 21.7958 20.8539 21.7941 21.0506C21.7924 21.2472 21.7135 21.4353 21.5745 21.5744C21.4354 21.7134 21.2473 21.7923 21.0507 21.794C20.854 21.7957 20.6646 21.7201 20.5231 21.5835L17.5936 18.654C15.6793 20.2942 13.204 21.1291 10.6873 20.9836C8.17065 20.8382 5.80812 19.7236 4.0955 17.8737C2.38287 16.0239 1.45329 13.5827 1.50181 11.0622C1.55032 8.54181 2.57317 6.13813 4.35571 4.35559C6.13825 2.57305 8.54193 1.5502 11.0624 1.50169C13.5828 1.45317 16.024 2.38275 17.8739 4.09537C19.7237 5.808 20.8383 8.17053 20.9838 10.6872C21.1292 13.2039 20.2943 15.6791 18.6541 17.5935V17.595ZM11.2501 19.5C13.4382 19.5 15.5366 18.6308 17.0838 17.0836C18.6309 15.5365 19.5001 13.438 19.5001 11.25C19.5001 9.06196 18.6309 6.96354 17.0838 5.41637C15.5366 3.86919 13.4382 3 11.2501 3C9.06209 3 6.96367 3.86919 5.41649 5.41637C3.86932 6.96354 3.00012 9.06196 3.00012 11.25C3.00012 13.438 3.86932 15.5365 5.41649 17.0836C6.96367 18.6308 9.06209 19.5 11.2501 19.5V19.5Z"/>
    </symbol>

    <symbol id="logo" viewBox="0 0 170 28">
        <g>
            <path fill-rule="evenodd" clip-rule="evenodd" d="M27.4293 0C26.5745 0 25.8311 0.187165 25.3851 0.449197L15.9075 5.98929V9.35827L25.4223 3.81817C25.8683 3.51871 26.6116 3.36898 27.4293 3.36898C28.2842 3.36898 29.0275 3.55614 29.4735 3.81817L38.9883 9.35827V5.98929L29.4735 0.449197C29.0275 0.187165 28.2842 0 27.4293 0Z"/>
            <path fill-rule="evenodd" clip-rule="evenodd" d="M27.4665 18.6792C26.6116 18.6792 25.8683 18.8663 25.4223 19.1284L15.9075 24.631V28L25.4223 22.4599C25.8683 22.1979 26.6116 22.0107 27.4665 22.0107C28.3213 22.0107 29.0647 22.1979 29.5107 22.4599L39.0255 28V24.631L29.5107 19.0909C29.0647 18.8289 28.3213 18.6792 27.4665 18.6792Z"/>
            <path fill-rule="evenodd" clip-rule="evenodd" d="M11.559 9.24597C10.7041 9.24597 9.96079 9.43313 9.51479 9.69516L0 15.2353V18.6042L9.51479 13.0641C9.96079 12.8021 10.7041 12.6149 11.559 12.6149C12.4138 12.6149 13.1572 12.8021 13.6032 13.0641L23.118 18.6042V15.2353L13.6032 9.69516C13.1572 9.3957 12.4138 9.24597 11.559 9.24597Z"/>
            <path fill-rule="evenodd" clip-rule="evenodd" d="M43.3369 9.24597C42.482 9.24597 41.7387 9.43313 41.2927 9.69516L31.7779 15.2353V18.6042L41.2927 13.0641C41.7387 12.8021 42.482 12.6149 43.3369 12.6149C44.1917 12.6149 44.935 12.8021 45.381 13.0641L54.8958 18.6042V15.2353L45.381 9.69516C44.935 9.3957 44.1917 9.24597 43.3369 9.24597Z"/>
            <path fill-rule="evenodd" clip-rule="evenodd" d="M72.5555 3.9375H68.1772V24.0625H71.0961V6.81778H72.5555C73.3414 6.81778 74.015 7.44553 74.015 8.25791V24.0625H76.9338V8.25791C76.9338 5.85768 74.9879 3.9375 72.5555 3.9375Z"/>
            <path fill-rule="evenodd" clip-rule="evenodd" d="M149.606 21.1822H148.146C147.36 21.1822 146.687 20.5545 146.687 19.7421V3.9375H143.768V19.7421C143.768 22.1054 145.714 24.0625 148.146 24.0625H152.524V3.9375H149.606V21.1822Z"/>
            <path fill-rule="evenodd" clip-rule="evenodd" d="M84.1935 3.9375H79.8152V24.0256H82.734V20.9238C83.1831 21.0715 83.6696 21.1822 84.1935 21.1822C86.5884 21.1822 88.5717 19.2621 88.5717 16.8618V8.25792C88.5717 5.85768 86.6258 3.9375 84.1935 3.9375ZM85.6529 16.8249C85.6529 17.6004 85.0167 18.265 84.1935 18.265C83.4076 18.265 82.734 17.6373 82.734 16.8618V6.81778H84.1935C84.9793 6.81778 85.6529 7.44553 85.6529 8.25792V16.8249Z"/>
            <path fill-rule="evenodd" clip-rule="evenodd" d="M95.8314 3.9375C93.4364 3.9375 91.4531 5.85768 91.4531 8.25791C91.4531 8.36869 91.4531 8.5164 91.4531 8.62718V19.3728C91.4531 19.4836 91.4531 19.6313 91.4531 19.7421C91.4531 22.1054 93.399 24.0625 95.8314 24.0625C98.2263 24.0625 100.21 22.1423 100.21 19.7421V18.3019H97.2908V19.7421C97.2908 20.5175 96.6546 21.1822 95.8314 21.1822C95.0455 21.1822 94.372 20.5545 94.372 19.7421C94.372 19.6682 94.372 19.5944 94.372 19.5575V15.3847H100.21V8.25791C100.21 5.85768 98.2263 3.9375 95.8314 3.9375ZM97.2908 12.5783H94.372V8.25791C94.372 7.48245 95.0081 6.81778 95.8314 6.81778C96.6172 6.81778 97.2908 7.44553 97.2908 8.25791V12.5783Z"/>
            <path fill-rule="evenodd" clip-rule="evenodd" d="M167.044 3.9375V11.1013C167.044 11.8767 166.408 12.5414 165.584 12.5414H164.125V3.9375H161.206V12.5414H159.784C158.998 12.5414 158.325 11.9137 158.325 11.1013V3.9375H155.406V11.1013C155.406 12.2091 155.818 13.2061 156.529 13.9815C155.855 14.757 155.406 15.754 155.406 16.8618V24.0256H158.325V16.8618C158.325 16.0864 158.961 15.4217 159.784 15.4217H161.244V24.0256H164.162V15.4217H165.622C166.408 15.4217 167.081 16.0494 167.081 16.8618V24.0256H170V16.8618C170 15.754 169.589 14.757 168.878 13.9815C169.551 13.2061 170 12.2091 170 11.1013V3.9375H167.044Z"/>
            <path fill-rule="evenodd" clip-rule="evenodd" d="M111.81 3.9375H107.432C105.037 3.9375 103.054 5.85768 103.054 8.25791V19.7421C103.054 22.1054 105 24.0625 107.432 24.0625H111.81V16.4556H108.891V21.1822H107.432C106.646 21.1822 105.973 20.5545 105.973 19.7421V8.25791C105.973 7.48245 106.609 6.81778 107.432 6.81778H108.891V11.5444H111.81V3.9375Z"/>
            <path fill-rule="evenodd" clip-rule="evenodd" d="M123.448 3.9375H119.07C116.675 3.9375 114.692 5.85768 114.692 8.25791V19.7421C114.692 22.1054 116.638 24.0625 119.07 24.0625H123.448V16.4556H120.529V21.1822H119.07C118.284 21.1822 117.611 20.5545 117.611 19.7421V8.25791C117.611 7.48245 118.247 6.81778 119.07 6.81778H120.529V11.5444H123.448V3.9375Z"/>
            <path fill-rule="evenodd" clip-rule="evenodd" d="M136.508 3.9375H126.33V24.0256H129.249V6.81778H132.167V24.0625H135.086V6.81778H136.546C137.332 6.81778 138.005 7.44553 138.005 8.25791V24.0625H140.924V8.25791C140.887 5.85768 138.941 3.9375 136.508 3.9375Z"/>
        </g>
    </symbol>

    <symbol id="phone" viewBox="0 0 24 24" fill="none" xmlns="http://www.w3.org/2000/svg">
        <path d="M5.37175 1.30119C5.34235 1.29947 5.31287 1.29961 5.28349 1.30161C5.04932 1.31751 4.82469 1.41443 4.65162 1.57914C4.64528 1.58518 4.63906 1.59132 4.63296 1.59759L1.89799 4.40327L1.89704 4.40425L1.8596 4.4425C1.57348 4.70074 1.41481 5.04461 1.34551 5.36147C1.2749 5.68426 1.28127 6.04867 1.40165 6.37719C2.11097 8.42728 4.02248 12.595 7.68231 16.2764L7.68243 16.2765C11.3251 19.9387 15.4026 21.7368 17.4817 22.5589C17.4928 22.5633 17.504 22.5674 17.5153 22.5712C17.8628 22.6885 18.226 22.7365 18.5952 22.6695C18.9667 22.6022 19.2922 22.4279 19.5772 22.1819C19.5906 22.1703 19.6036 22.1582 19.6161 22.1456L22.3785 19.3677C22.3787 19.3674 22.379 19.3672 22.3792 19.367C22.3907 19.3555 22.4013 19.3454 22.4128 19.3347C22.414 19.3335 22.4157 19.332 22.4177 19.3301C22.4276 19.3209 22.4462 19.3036 22.4603 19.2898L22.461 19.2891C22.4761 19.2743 22.5237 19.2278 22.5683 19.1633C22.6175 19.0922 22.7 18.9472 22.7 18.7456C22.7 18.544 22.6175 18.399 22.5683 18.3278C22.5237 18.2633 22.4761 18.2169 22.461 18.2021L22.4603 18.2014C22.4462 18.1876 22.4276 18.1703 22.4177 18.1611C22.4157 18.1592 22.414 18.1576 22.4128 18.1565C22.4013 18.1457 22.3906 18.1356 22.3791 18.1241C22.3789 18.1239 22.3787 18.1237 22.3785 18.1235L18.6859 14.4083L18.6843 14.4067C18.682 14.4044 18.6779 14.4003 18.6727 14.3949C18.6494 14.3712 18.602 14.323 18.5701 14.2942C18.5693 14.2935 18.5682 14.2925 18.5669 14.2913C18.5338 14.2608 18.3434 14.0854 18.0486 14.0854C17.7538 14.0854 17.5634 14.2608 17.5303 14.2913C17.529 14.2925 17.5279 14.2935 17.5271 14.2942C17.4952 14.323 17.4478 14.3713 17.4245 14.395C17.4193 14.4003 17.4153 14.4044 17.4129 14.4067L17.4114 14.4082L15.0752 16.7584L14.954 16.7034L14.9395 16.6971L14.9394 16.697L14.9393 16.697L14.9391 16.6969L14.9391 16.6969L14.9356 16.6953L14.9182 16.6877C14.9021 16.6807 14.8771 16.6696 14.8439 16.6545C14.7775 16.6244 14.6785 16.5784 14.5523 16.517C14.2997 16.394 13.9393 16.2095 13.5148 15.9665C12.6627 15.4787 11.5679 14.7638 10.5706 13.848C10.5648 13.8428 10.559 13.8376 10.5532 13.8326L10.3703 13.6756C9.35598 12.6995 8.59674 11.5507 8.08783 10.6325C7.83354 10.1736 7.64489 9.7781 7.52059 9.49926C7.45851 9.35997 7.41265 9.2502 7.38284 9.17666C7.36794 9.13991 7.35707 9.11224 7.3502 9.09451L7.34321 9.07631L7.29814 8.94777L7.38924 8.86222C7.39505 8.85676 7.40077 8.8512 7.40639 8.84555L9.66226 6.57699C9.8496 6.3886 9.93458 6.15671 9.93253 5.93372C9.93168 5.84064 9.91583 5.76422 9.90103 5.71124C9.87119 5.59404 9.81055 5.48305 9.71911 5.39109L9.63713 5.30866L6.03053 1.59745C6.02337 1.59008 6.01604 1.58287 6.00856 1.57582C5.83535 1.41262 5.61007 1.31512 5.37175 1.30119Z" stroke-width="1.4" stroke-linejoin="round"/>
    </symbol>

    <symbol id="burger" viewBox="0 0 24 20" fill="none" xmlns="http://www.w3.org/2000/svg">
        <rect width="24" height="1.30841" fill="#344054"/>
        <rect y="9.3458" width="24" height="1.30841" fill="#344054"/>
        <rect y="18.6916" width="24" height="1.30841" fill="#344054"/>
    </symbol>

    <symbol id="footer-logo" viewBox="0 0 216 48">
        <g>
            <path fill-rule="evenodd" clip-rule="evenodd" d="M42.979 8C42.0135 8 41.174 8.2139 40.6703 8.51337L29.9661 14.8449V18.6952L40.7122 12.3636C41.216 12.0214 42.0555 11.8503 42.979 11.8503C43.9445 11.8503 44.784 12.0642 45.2877 12.3636L56.0339 18.6952V14.8449L45.2877 8.51337C44.784 8.2139 43.9445 8 42.979 8Z"/>
            <path fill-rule="evenodd" clip-rule="evenodd" d="M43.021 29.3476C42.0555 29.3476 41.216 29.5615 40.7122 29.861L29.9661 36.1497V40L40.7122 33.6685C41.216 33.369 42.0555 33.1551 43.021 33.1551C43.9864 33.1551 44.826 33.369 45.3297 33.6685L56.0758 40V36.1497L45.3297 29.8182C44.826 29.5187 43.9864 29.3476 43.021 29.3476Z"/>
            <path fill-rule="evenodd" clip-rule="evenodd" d="M25.0548 18.5668C24.0894 18.5668 23.2498 18.7807 22.7461 19.0802L12 25.4117V29.262L22.7461 22.9305C23.2498 22.631 24.0894 22.4171 25.0548 22.4171C26.0203 22.4171 26.8599 22.631 27.3636 22.9305L38.1097 29.262V25.4117L27.3636 19.0802C26.8599 18.7379 26.0203 18.5668 25.0548 18.5668Z"/>
            <path fill-rule="evenodd" clip-rule="evenodd" d="M60.9452 18.5668C59.9797 18.5668 59.1401 18.7807 58.6364 19.0802L47.8903 25.4117V29.262L58.6364 22.9305C59.1401 22.631 59.9797 22.4171 60.9452 22.4171C61.9106 22.4171 62.7502 22.631 63.2539 22.9305L74 29.262V25.4117L63.2539 19.0802C62.7502 18.7379 61.9106 18.5668 60.9452 18.5668Z"/>
            <path fill-rule="evenodd" clip-rule="evenodd" d="M93.9449 12.5H89V35.5H92.2966V15.7917H93.9449C94.8324 15.7917 95.5932 16.5092 95.5932 17.4376V35.5H98.8898V17.4376C98.8898 14.6945 96.692 12.5 93.9449 12.5Z"/>
            <path fill-rule="evenodd" clip-rule="evenodd" d="M180.966 32.2083H179.318C178.43 32.2083 177.67 31.4908 177.67 30.5624V12.5H174.373V30.5624C174.373 33.2633 176.571 35.5 179.318 35.5H184.263V12.5H180.966V32.2083Z"/>
            <path fill-rule="evenodd" clip-rule="evenodd" d="M107.089 12.5H102.144V35.4578H105.441V31.9129C105.948 32.0817 106.497 32.2083 107.089 32.2083C109.794 32.2083 112.034 30.0138 112.034 27.2707V17.4376C112.034 14.6945 109.836 12.5 107.089 12.5ZM108.737 27.2284C108.737 28.1147 108.019 28.8743 107.089 28.8743C106.201 28.8743 105.441 28.1569 105.441 27.2707V15.7917H107.089C107.976 15.7917 108.737 16.5092 108.737 17.4376V27.2284Z"/>
            <path fill-rule="evenodd" clip-rule="evenodd" d="M120.233 12.5C117.528 12.5 115.288 14.6945 115.288 17.4376C115.288 17.5642 115.288 17.733 115.288 17.8596V30.1404C115.288 30.267 115.288 30.4358 115.288 30.5624C115.288 33.2633 117.486 35.5 120.233 35.5C122.938 35.5 125.178 33.3055 125.178 30.5624V28.9165H121.881V30.5624C121.881 31.4486 121.163 32.2083 120.233 32.2083C119.345 32.2083 118.585 31.4908 118.585 30.5624C118.585 30.478 118.585 30.3936 118.585 30.3514V25.5826H125.178V17.4376C125.178 14.6945 122.938 12.5 120.233 12.5ZM121.881 22.3752H118.585V17.4376C118.585 16.5514 119.303 15.7917 120.233 15.7917C121.12 15.7917 121.881 16.5092 121.881 17.4376V22.3752Z"/>
            <path fill-rule="evenodd" clip-rule="evenodd" d="M200.661 12.5V20.6872C200.661 21.5734 199.943 22.333 199.013 22.333H197.365V12.5H194.068V22.333H192.462C191.574 22.333 190.814 21.6156 190.814 20.6872V12.5H187.517V20.6872C187.517 21.9532 187.982 23.0927 188.785 23.9789C188.024 24.8651 187.517 26.0046 187.517 27.2707V35.4578H190.814V27.2707C190.814 26.3844 191.532 25.6248 192.462 25.6248H194.11V35.4578H197.4055C199.943 25.6248 200.703 26.3422 200.703 27.2707V35.4578H204V27.2707C204 26.0046 203.535 24.8651 202.732 23.9789C203.493 23.0927 204 21.9532 204 20.6872V12.5H200.661Z"/>
            <path fill-rule="evenodd" clip-rule="evenodd" d="M138.28 12.5H133.335C130.63 12.5 128.39 14.6945 128.39 17.4376V30.5624C128.39 33.2633 130.588 35.5 133.335 35.5H138.28V26.8064H134.983V32.2083H133.335C132.447 32.2083 131.687 31.4908 131.687 30.5624V17.4376C131.687 16.5514 132.405 15.7917 133.335 15.7917H134.983V21.1936H138.28V12.5Z"/>
            <path fill-rule="evenodd" clip-rule="evenodd" d="M151.424 12.5H146.479C143.774 12.5 141.534 14.6945 141.534 17.4376V30.5624C141.534 33.2633 143.732 35.5 146.479 35.5H151.424V26.8064H148.127V32.2083H146.479C145.591 32.2083 144.831 31.4908 144.831 30.5624V17.4376C144.831 16.5514 145.549 15.7917 146.479 15.7917H148.127V21.1936H151.424V12.5Z"/>
            <path fill-rule="evenodd" clip-rule="evenodd" d="M166.174 12.5H154.678V35.4578H157.975V15.7917H161.271V35.5H164.568V15.7917H166.216C167.104 15.7917 167.864 16.5092 167.864 17.4376V35.5H171.161V17.4376C171.119 14.6945 168.921 12.5 166.174 12.5Z"/>
        </g>
    </symbol>

    <symbol id="vk" viewBox="0 0 32 32">
        <path d="M16.4002 3.2002C9.10995 3.2002 3.2002 9.10995 3.2002 16.4002C3.2002 23.6904 9.10995 29.6002 16.4002 29.6002C23.6904 29.6002 29.6002 23.6904 29.6002 16.4002C29.6002 9.10995 23.6904 3.2002 16.4002 3.2002ZM21.4767 18.0928C21.4767 18.0928 22.6441 19.2451 22.9314 19.7799C22.9397 19.7909 22.9438 19.8019 22.9466 19.8074C23.0634 20.0041 23.0909 20.1567 23.0332 20.2708C22.9369 20.4606 22.6069 20.5541 22.4942 20.5623H20.4317C20.2887 20.5623 19.9889 20.5252 19.6259 20.2749C19.3468 20.0797 19.0718 19.7593 18.8037 19.4472C18.4036 18.9824 18.0571 18.5809 17.7078 18.5809C17.6635 18.5809 17.6194 18.5878 17.5772 18.6016C17.3132 18.6868 16.9749 19.0636 16.9749 20.0673C16.9749 20.3808 16.7274 20.5609 16.5528 20.5609H15.6082C15.2864 20.5609 13.6103 20.4482 12.1253 18.8821C10.3076 16.9639 8.67132 13.1167 8.65757 13.0809C8.55444 12.8321 8.76757 12.6987 8.99994 12.6987H11.0831C11.3608 12.6987 11.4516 12.8678 11.5148 13.0177C11.5891 13.1923 11.8613 13.8867 12.3082 14.6677C13.0328 15.9409 13.4769 16.4579 13.8331 16.4579C13.8998 16.4572 13.9654 16.4402 14.0242 16.4084C14.4889 16.1499 14.4023 14.4931 14.3817 14.1493C14.3817 14.0847 14.3803 13.4082 14.1424 13.0837C13.9719 12.8486 13.6818 12.7592 13.5058 12.7262C13.5771 12.6279 13.6709 12.5482 13.7794 12.4938C14.0984 12.3343 14.6732 12.3109 15.2438 12.3109H15.5614C16.1802 12.3192 16.3397 12.3591 16.5638 12.4154C17.0176 12.5241 17.0272 12.8169 16.9873 13.8193C16.9749 14.1039 16.9626 14.4257 16.9626 14.8052C16.9626 14.8877 16.9584 14.9757 16.9584 15.0692C16.9447 15.5793 16.9282 16.1582 17.2884 16.3961C17.3354 16.4255 17.3897 16.4413 17.4452 16.4414C17.5703 16.4414 17.9471 16.4414 18.9673 14.6911C19.282 14.1277 19.5554 13.5422 19.7854 12.9393C19.8061 12.9036 19.8666 12.7936 19.9381 12.7509C19.9908 12.724 20.0493 12.7104 20.1086 12.7111H22.5574C22.8242 12.7111 23.0071 12.7509 23.0414 12.8541C23.1019 13.0177 23.0304 13.5168 21.9126 15.0307L21.4134 15.6893C20.4001 17.0176 20.4001 17.0849 21.4767 18.0928Z"/>
    </symbol>

    <symbol id="telegram" viewBox="0 0 32 32">
        <path fill-rule="evenodd" clip-rule="evenodd" d="M29.6002 16.4002C29.6002 23.6899 23.6899 29.6002 16.4002 29.6002C9.1105 29.6002 3.2002 23.6899 3.2002 16.4002C3.2002 9.1105 9.1105 3.2002 16.4002 3.2002C23.6899 3.2002 29.6002 9.1105 29.6002 16.4002ZM16.8732 12.9451C15.5895 13.4786 13.0232 14.5841 9.1754 16.2605C8.5506 16.5091 8.2228 16.7522 8.1931 16.9898C8.1425 17.3924 8.6463 17.5508 9.3305 17.7653C9.424 17.795 9.5208 17.8247 9.6198 17.8577C10.2941 18.0766 11.2005 18.3329 11.6713 18.3428C12.0992 18.3516 12.5766 18.1756 13.1035 17.8148C16.6983 15.3871 18.554 14.1606 18.6706 14.1342C18.7531 14.1155 18.8675 14.0913 18.9445 14.1606C19.0215 14.2288 19.0138 14.3586 19.0061 14.3938C18.9555 14.6061 16.9821 16.442 15.9591 17.3924C15.6401 17.6883 15.4146 17.8984 15.3684 17.9468C15.265 18.0535 15.1594 18.1558 15.0582 18.2537C14.4312 18.8565 13.9626 19.3097 15.0846 20.0489C15.6236 20.4042 16.0548 20.6979 16.4849 20.9905C16.9546 21.3106 17.4232 21.6296 18.0304 22.0278C18.1844 22.129 18.3318 22.2335 18.4759 22.3358C19.0226 22.7263 19.5143 23.0761 20.1215 23.0211C20.4735 22.9881 20.8387 22.657 21.0235 21.6681C21.4602 19.3295 22.3204 14.2651 22.5195 12.1773C22.5316 12.004 22.5242 11.8298 22.4975 11.6581C22.4815 11.5194 22.414 11.3918 22.3083 11.3006C22.151 11.1719 21.9068 11.1444 21.7968 11.1466C21.3007 11.1554 20.5395 11.4205 16.8732 12.9451Z"/>
    </symbol>

    <symbol id="arrow-prev" viewBox="0 0 14 26" fill="none">
        <path d="M13 1L1 13L13 25"/>
    </symbol>

    <symbol id="arrow-next" viewBox="0 0 14 26" fill="none">
        <path d="M1 1L13 13L1 25"/>
    </symbol>

    <symbol id="plus" viewBox="0 0 28 28">
        <path d="M14.6164 0.730579C14.6169 0.389418 14.3408 0.113268 13.9996 0.11378C13.6585 0.114293 13.3815 0.391273 13.381 0.732434L13.3619 13.4045L0.774789 13.4234C0.433629 13.4239 0.156648 13.7009 0.156136 14.0421C0.155623 14.3832 0.431773 14.6594 0.772934 14.6589L13.3601 14.64L13.3412 27.2271C13.3407 27.5683 13.6168 27.8444 13.958 27.8439C14.2991 27.8434 14.5761 27.5664 14.5766 27.2253L14.5955 14.6381L27.2676 14.6191C27.6088 14.6186 27.8858 14.3416 27.8863 14.0004C27.8868 13.6593 27.6106 13.3831 27.2695 13.3836L14.5974 13.4027L14.6164 0.730579Z"/>
    </symbol>

    <symbol id="close" viewBox="0 0 32 32">
        <path d="M23.4532 6.6665L15.9998 14.1198L8.5465 6.6665L6.6665 8.5465L14.1198 15.9998L6.6665 23.4532L8.5465 25.3332L15.9998 17.8798L23.4532 25.3332L25.3332 23.4532L17.8798 15.9998L25.3332 8.5465L23.4532 6.6665Z"/>
    </symbol>

    <symbol id="check" viewBox="0 0 22 22">
        <path fill-rule="evenodd" clip-rule="evenodd" d="M5.125 9L3 11L9.375 17L20 7L17.875 5L9.375 13L5.125 9Z"/>
    </symbol>

    <symbol id="stop" viewBox="0 0 24 24">
        <path d="M9 9H15V15H9V9Z"/>
        <path fill-rule="evenodd" clip-rule="evenodd" d="M12.8999 1.50004C15.2999 1.65004 17.5499 2.85004 19.1999 4.50004C21.1499 6.60004 22.1999 9.15004 22.1999 12.15C22.1999 14.55 21.2999 16.8 19.7999 18.75C18.2999 20.55 16.1999 21.9 13.7999 22.35C11.3999 22.8 8.99994 22.5 6.89994 21.3C4.79994 20.1 3.14994 18.3 2.24994 16.05C1.34994 13.8 1.19994 11.25 1.94994 9.00004C2.69994 6.60004 4.04994 4.65004 6.14994 3.30004C8.09994 1.95004 10.4999 1.35004 12.8999 1.50004ZM13.6499 20.85C15.5999 20.4 17.3999 19.35 18.7499 17.7C19.9499 16.05 20.6999 14.1 20.5499 12C20.5499 9.60004 19.6499 7.20004 17.9999 5.55004C16.4999 4.05004 14.6999 3.15004 12.5999 3.00004C10.6499 2.85004 8.54994 3.30004 6.89994 4.50004C5.24994 5.70004 4.04994 7.35004 3.44994 9.45004C2.84994 11.4 2.84994 13.5 3.74994 15.45C4.64994 17.4 5.99994 18.9 7.79994 19.95C9.59994 21 11.6999 21.3 13.6499 20.85Z"/>
    </symbol>

    <symbol id="play" viewBox="0 0 24 24">
        <path d="M5.67 3L4.5 3.615V21.615L5.67 22.245L19.17 13.245V12L5.67 3ZM6 20.22V5.025L17.4 12.63L6 20.22Z"/>
    </symbol>

</svg>
