<svg width="121" height="120" viewBox="0 0 121 120" fill="none" xmlns="http://www.w3.org/2000/svg">
<path d="M55.2281 85.4052C54.1236 85.4052 53.2281 86.3006 53.2281 87.4052C53.2281 88.5098 54.1236 89.4052 55.2281 89.4052V85.4052ZM24.1504 64.2794C24.1504 65.384 25.0459 66.2794 26.1504 66.2794C27.255 66.2794 28.1504 65.384 28.1504 64.2794H24.1504ZM40.0125 74.9516C41.1171 74.9516 42.0125 74.0561 42.0125 72.9516C42.0125 71.847 41.1171 70.9516 40.0125 70.9516V74.9516ZM16.7002 70.9516C15.5956 70.9516 14.7002 71.847 14.7002 72.9516C14.7002 74.0561 15.5956 74.9516 16.7002 74.9516V70.9516ZM42.9265 82.9011C44.0311 82.9011 44.9265 82.0056 44.9265 80.9011C44.9265 79.7965 44.0311 78.9011 42.9265 78.9011V82.9011ZM23.2427 78.9011C22.1381 78.9011 21.2427 79.7965 21.2427 80.9011C21.2427 82.0056 22.1381 82.9011 23.2427 82.9011V78.9011ZM45.7779 90.8506C46.8825 90.8506 47.7779 89.9551 47.7779 88.8506C47.7779 87.746 46.8825 86.8506 45.7779 86.8506V90.8506ZM31.966 86.8506C30.8614 86.8506 29.966 87.746 29.966 88.8506C29.966 89.9551 30.8614 90.8506 31.966 90.8506V86.8506ZM55.2281 70.0608L54.2036 71.7785C54.8347 72.155 55.6215 72.155 56.2527 71.7785L55.2281 70.0608ZM31.966 48.9351H78.4903V44.9351H31.966V48.9351ZM82.3058 52.7165V81.6237H86.3058V52.7165H82.3058ZM78.4903 85.4052H55.2281V89.4052H78.4903V85.4052ZM28.1504 64.2794V52.7165H24.1504V64.2794H28.1504ZM82.3058 81.6237C82.3058 83.7011 80.6087 85.4052 78.4903 85.4052V89.4052C82.7956 89.4052 86.3058 85.9324 86.3058 81.6237H82.3058ZM78.4903 48.9351C80.6087 48.9351 82.3058 50.6391 82.3058 52.7165H86.3058C86.3058 48.4079 82.7956 44.9351 78.4903 44.9351V48.9351ZM31.966 44.9351C27.6607 44.9351 24.1504 48.4079 24.1504 52.7165H28.1504C28.1504 50.6391 29.8476 48.9351 31.966 48.9351V44.9351ZM40.0125 70.9516H16.7002V74.9516H40.0125V70.9516ZM42.9265 78.9011H23.2427V82.9011H42.9265V78.9011ZM45.7779 86.8506H38.8719V90.8506H45.7779V86.8506ZM38.8719 86.8506H31.966V90.8506H38.8719V86.8506ZM25.1259 54.4342L54.2036 71.7785L56.2527 68.3432L27.175 50.9989L25.1259 54.4342ZM56.2527 71.7785L85.3304 54.4342L83.2813 50.9989L54.2036 68.3432L56.2527 71.7785Z" fill="#667085"/>
<rect x="81.6016" y="23.9492" width="4.05634" height="12.169" rx="2.02817" fill="#667085"/>
<rect x="89.7139" y="28.0056" width="4.05634" height="12.169" rx="2.02817" transform="rotate(90 89.7139 28.0056)" fill="#667085"/>
<rect x="104.588" y="40.1746" width="4.05634" height="12.169" rx="2.02817" fill="#667085"/>
<rect x="112.7" y="44.231" width="4.05634" height="12.169" rx="2.02817" transform="rotate(90 112.7 44.231)" fill="#667085"/>
</svg>
