<svg width="60" height="60" viewBox="0 0 60 60" fill="none" xmlns="http://www.w3.org/2000/svg">
<path fill-rule="evenodd" clip-rule="evenodd" d="M25.321 8.60983C22.531 10.7267 16.7682 15.1057 15.2607 16.2544L14.2508 17.0238L14.2504 30.4637L14.25 43.9035L16.4808 45.7315C17.8603 46.8619 18.7308 47.5092 18.7619 47.428C18.7894 47.3557 18.7998 44.0782 18.7848 40.1448C18.7697 36.2114 18.7709 32.9932 18.7872 32.9932C18.8214 32.9932 28.871 36.7917 30.8289 37.5447L32.1242 38.0428L32.1508 45.6698C32.1673 50.4023 32.2145 53.2838 32.2753 53.2624C32.3669 53.2302 34.6429 51.3883 36.0548 50.2038L36.6834 49.6766L36.707 40.0889C36.7304 30.5548 36.7294 30.5006 36.5207 30.3884C36.3223 30.2818 32.2909 28.7277 32.2128 28.7277C32.1926 28.7277 32.176 29.7811 32.176 31.0685C32.176 32.869 32.1461 33.4093 32.0468 33.4093C31.9349 33.4093 29.442 32.48 25.9071 31.1204C25.3372 30.9012 23.8684 30.3451 22.6431 29.8845C21.4178 29.4241 20.0656 28.911 19.6382 28.7445L18.861 28.4418V23.2608V18.0798L21.037 16.422L23.213 14.7641L23.2648 22.1361L23.3166 29.508L25.4408 30.3139C26.6091 30.7572 27.6233 31.1199 27.6945 31.1201C27.7943 31.1204 27.824 30.581 27.824 28.7686C27.824 26.5711 27.8359 26.4214 28.0053 26.4877C28.105 26.5267 29.4223 27.0274 30.9326 27.6003C32.4428 28.1733 34.0282 28.7773 34.4556 28.9424C34.883 29.1076 36.5616 29.7485 38.1859 30.3667L41.139 31.4908L41.1908 39.534L41.2426 47.5772L43.4963 45.7336L45.75 43.8899L45.7448 30.4568L45.7396 17.0238L42.51 14.579C40.7336 13.2344 37.7401 10.9619 35.8577 9.52908C33.9752 8.09621 32.3765 6.88785 32.3049 6.84363C32.2008 6.77944 32.18 8.37908 32.2013 14.8405L32.2278 22.9175L34.392 23.742C35.5822 24.1954 36.5955 24.5664 36.6436 24.5664C36.6917 24.5664 36.7311 22.4012 36.731 19.7548C36.731 17.1084 36.7668 14.9284 36.8107 14.9103C36.8547 14.8923 37.8581 15.6126 39.0407 16.511L41.1908 18.1445V22.5514V26.9583L40.6468 26.7469C39.8876 26.4519 33.0666 23.8585 32.435 23.6247C32.1501 23.5193 31.0077 23.0853 29.8964 22.6604L27.8758 21.888L27.824 14.3189L27.7722 6.75L25.321 8.60983ZM23.2652 42.5384L23.2657 49.6907L25.2452 51.3033C26.3338 52.1902 27.3597 53.0247 27.5249 53.1579L27.8253 53.4L27.7987 45.2024L27.7722 37.0046L25.648 36.2001C24.4797 35.7577 23.4656 35.3935 23.3943 35.3909C23.292 35.387 23.2649 36.8829 23.2652 42.5384Z" fill="#98A2B3"/>
</svg>
