<svg width="60" height="60" viewBox="0 0 60 60" fill="none" xmlns="http://www.w3.org/2000/svg">
<path fill-rule="evenodd" clip-rule="evenodd" d="M43.401 7.24642C42.7479 7.43397 36.1596 9.31334 28.7605 11.4229C21.3613 13.5324 15.2829 15.283 15.2528 15.313C15.2227 15.3431 15.1874 21.1012 15.1742 28.1087L15.1504 40.8497L16.3233 41.8888C16.9683 42.4602 18.2555 43.6041 19.1835 44.4308C20.1115 45.2574 20.8887 45.9337 20.9104 45.9337C20.9321 45.9337 20.9498 40.0125 20.9498 32.7755V19.6173L23.5289 18.8835C38.2827 14.686 44.7237 12.8357 44.765 12.7834C44.792 12.7489 44.8024 11.4099 44.7881 9.80771C44.7687 7.64579 44.7396 6.89603 44.6753 6.90004C44.6275 6.90308 44.0541 7.05894 43.401 7.24642ZM44.1432 15.3565C43.8983 15.4311 39.1027 16.8011 33.4864 18.401L23.2749 21.3098L23.2257 27.3688C23.1987 30.7012 23.1765 36.7018 23.1765 40.7032L23.1764 47.9786L26.0292 50.5109C27.5981 51.9038 28.9007 53.0245 28.9237 53.0015C28.9467 52.9785 28.9655 49.6762 28.9655 45.6629V38.3662L29.1325 38.3229C29.2243 38.2991 31.8377 37.5553 34.9401 36.6701L40.5807 35.0606L40.6001 32.0681C40.6184 29.2395 40.6123 29.0777 40.4887 29.1167C40.0627 29.2511 29.3372 32.2944 29.1688 32.3287L28.9639 32.3705L28.9833 29.01L29.0026 25.6495L36.2389 23.5857C40.2189 22.4506 43.7841 21.4315 44.1618 21.321L44.8483 21.1201V18.1636C44.8483 14.8003 44.928 15.1177 44.1432 15.3565Z" fill="#98A2B3"/>
</svg>
