<svg width="60" height="60" viewBox="0 0 60 60" fill="none" xmlns="http://www.w3.org/2000/svg">
<path fill-rule="evenodd" clip-rule="evenodd" d="M28.4795 28.6693V50.2887L27.5612 50.1849C25.2749 49.9261 22.341 48.9358 20.1542 47.6847C14.0663 44.2012 10.2803 38.1193 9.79924 31.05C9.56989 27.6792 10.5981 23.1463 12.2492 20.25C13.7934 17.5411 16.4444 14.6356 18.8045 13.0651C19.8311 12.382 22.8572 10.8 23.1372 10.8C23.1879 10.8 23.2292 11.4243 23.2289 12.1875L23.2284 13.575L22.2329 14.0898C20.0897 15.1981 17.5458 17.3191 16.1184 19.188C9.70579 27.5844 12.242 39.9273 21.4916 45.3372C22.3154 45.819 25.5962 47.25 25.877 47.25C25.9059 47.25 25.9295 42.93 25.9295 37.65V28.05H22.3295H18.7295V29.775V31.5H20.7545H22.7795V36.3C22.7795 38.94 22.7369 41.1 22.6847 41.1C22.5029 41.1 21.4983 40.4419 20.6402 39.7609C18.9173 38.3935 17.5343 36.3084 16.655 33.7522C16.1301 32.2267 16.1126 32.1061 16.1195 30.075C16.1256 28.2877 16.1864 27.7515 16.5275 26.475C17.0093 24.6721 18.0033 22.585 18.9321 21.4261C19.6779 20.4957 21.1448 19.3867 22.142 18.9997L22.7795 18.7524V21.3762V24H24.3314H25.8831L25.9878 18.6375C26.0453 15.6882 26.0844 11.9016 26.0748 10.2229L26.0571 7.17074L25.5243 7.27079C25.2314 7.32569 24.4095 7.53869 23.6981 7.74404C15.5345 10.0998 9.26989 16.8897 7.46989 25.3326C7.07434 27.1881 6.92329 30.918 7.16869 32.775C7.86604 38.0532 10.0626 42.4941 13.8491 46.2804C15.9534 48.3849 17.6442 49.5889 20.2683 50.8522C23.2208 52.2735 25.9014 52.9396 29.1545 53.0604C39.2591 53.4358 48.468 47.1148 51.792 37.5222C54.3057 30.2679 53.0516 22.2345 48.4478 16.1002C45.4875 12.156 41.0048 9.06464 36.305 7.72664C35.2878 7.43699 34.3596 7.19999 34.2425 7.19999C34.0602 7.19999 34.0295 8.95409 34.0295 19.35V31.5H39.0545H44.0795L44.0777 32.2125C44.0726 34.2355 42.531 37.4671 40.5702 39.5653C39.6911 40.5061 37.8729 42 37.6071 42C37.5369 42 37.4795 40.4137 37.4795 38.475V34.95H35.7545H34.0295V41.0884V47.2269L35.117 46.9285C39.2619 45.7911 43.6547 42.2295 45.8619 38.2164C47.0882 35.9869 47.6651 33.628 47.7887 30.3375L47.8746 28.05H42.6771H37.4795V23.175C37.4795 20.4937 37.5354 18.3 37.6038 18.3C37.9199 18.3 39.2145 19.3218 40.0445 20.226C40.9842 21.2502 42.6459 23.634 43.1195 24.6375C43.2656 24.9469 43.457 25.1992 43.5447 25.1983C43.7358 25.1962 46.6562 24.3232 46.7348 24.2448C46.8273 24.1521 46.3182 22.7734 45.8412 21.825C44.3589 18.8785 41.7549 16.3192 38.2815 14.395L36.8795 13.6183V12.217V10.8156L37.3242 10.9707C38.1623 11.2627 40.2543 12.3765 41.3726 13.1257C42.8436 14.1114 45.1121 16.2825 46.2042 17.7501C47.8337 19.9393 49.0149 22.4031 49.7039 25.05C50.0481 26.3724 50.1263 27.0414 50.1908 29.2215C50.2712 31.9353 50.1513 33.186 49.6172 35.2062C48.155 40.7374 44.1546 45.6189 38.9264 48.2518C37.125 49.1589 33.3365 50.25 31.988 50.25H31.6295V28.65V7.04999H30.0545H28.4795V28.6693Z" fill="#98A2B3"/>
</svg>
