<svg width="60" height="60" viewBox="0 0 60 60" fill="none" xmlns="http://www.w3.org/2000/svg">
<path fill-rule="evenodd" clip-rule="evenodd" d="M26.8771 7.10844C21.7359 7.81363 17.413 9.97923 13.6573 13.7307C10.2384 17.1458 8.25402 20.8186 7.22407 25.6379C6.95005 26.9196 6.90039 27.5949 6.90039 30.0363C6.90039 32.4776 6.95005 33.1529 7.22407 34.4347C7.9032 37.6126 9.07564 40.4011 10.8644 43.0933C12.0867 44.933 15.0674 47.9104 16.9087 49.1311C18.8366 50.4093 22.1699 52.0282 22.8741 52.0283C23.0113 52.0284 23.0423 50.9549 23.0114 47.2694L22.9714 42.5104H24.8522H26.7328V47.7065C26.7328 52.5196 26.7514 52.9103 26.9854 53.0062C27.1243 53.0633 28.5049 53.1053 30.0533 53.0995C32.3911 53.091 33.1257 53.0346 34.3845 52.7669C43.8652 50.7513 50.8687 43.7452 52.7492 34.3954C53.2224 32.0421 53.2166 28.0165 52.7366 25.6018L52.3996 23.9073H39.5663H26.7328V27.5847V31.262H24.8559H22.9791V25.71V20.1579H36.911C46.2413 20.1579 50.8429 20.1096 50.8429 20.0115C50.8429 19.7816 50.0068 18.3333 49.0541 16.9131C47.9066 15.2024 44.8516 12.1467 43.119 10.9769C38.2955 7.72004 32.4932 6.33807 26.8771 7.10844ZM34.4761 11.1261C37.2605 11.8238 39.6695 12.9886 41.964 14.7467C42.5198 15.1725 43.1655 15.7207 43.3986 15.9647L43.8226 16.4084H31.5601H19.2976V25.71V35.0115H26.7689H34.2401V36.8849V38.7584L26.7956 38.7957L19.3509 38.8331L19.3647 42.5465C19.3724 44.5889 19.3373 46.2599 19.2866 46.2599C19.0425 46.2599 16.7045 44.2835 15.7842 43.299C13.4615 40.8148 11.9019 37.912 11.026 34.4433C10.6728 33.0445 10.6416 32.6857 10.6429 30.0363C10.6444 27.5101 10.6863 26.982 10.9802 25.7821C12.552 19.3664 16.8901 14.3253 22.8871 11.9457C25.434 10.9352 27.2352 10.6417 30.4864 10.7081C32.5967 10.751 33.2539 10.82 34.4761 11.1261ZM49.3701 29.6757C49.4839 35.2 47.6216 39.8167 43.6976 43.7381C41.9421 45.4927 40.531 46.5016 38.3547 47.5585C36.2041 48.6029 33.032 49.4325 31.1894 49.4325H30.4864V45.9715V42.5104H34.2401H37.9938V36.8862V31.262H34.2401H30.4864V29.4835C30.4864 28.5052 30.5302 27.6611 30.5837 27.6076C30.6373 27.5543 34.8763 27.5272 40.004 27.5476L49.327 27.5847L49.3701 29.6757Z" fill="#98A2B3"/>
</svg>
