<svg width="40" height="40" viewBox="0 0 40 40" fill="none" xmlns="http://www.w3.org/2000/svg">
<path d="M26.6541 25.595L29.5836 28.523C29.7202 28.6645 29.7958 28.8539 29.7941 29.0506C29.7924 29.2472 29.7135 29.4353 29.5745 29.5744C29.4354 29.7134 29.2473 29.7923 29.0507 29.794C28.854 29.7957 28.6646 29.7201 28.5231 29.5835L25.5936 26.654C23.6793 28.2942 21.204 29.1291 18.6873 28.9836C16.1706 28.8382 13.8081 27.7236 12.0955 25.8737C10.3829 24.0239 9.45329 21.5827 9.50181 19.0622C9.55032 16.5418 10.5732 14.1381 12.3557 12.3556C14.1383 10.573 16.5419 9.5502 19.0624 9.50169C21.5828 9.45317 24.024 10.3828 25.8739 12.0954C27.7237 13.808 28.8383 16.1705 28.9838 18.6872C29.1292 21.2039 28.2943 23.6791 26.6541 25.5935V25.595ZM19.2501 27.5C21.4382 27.5 23.5366 26.6308 25.0838 25.0836C26.6309 23.5365 27.5001 21.438 27.5001 19.25C27.5001 17.062 26.6309 14.9635 25.0838 13.4164C23.5366 11.8692 21.4382 11 19.2501 11C17.0621 11 14.9637 11.8692 13.4165 13.4164C11.8693 14.9635 11.0001 17.062 11.0001 19.25C11.0001 21.438 11.8693 23.5365 13.4165 25.0836C14.9637 26.6308 17.0621 27.5 19.2501 27.5V27.5Z" fill="#344054"/>
</svg>
